<mxfile host="app.diagrams.net" agent="Mozilla/5.0 (Windows NT 10.0; Win64; x64) AppleWebKit/537.36 (KHTML, like Gecko) Chrome/135.0.0.0 Safari/537.36" version="26.2.14">
  <diagram name="Job数据结构" id="PqTIlSyxcyXEVOrFBVIr">
    <mxGraphModel dx="2234" dy="1926" grid="1" gridSize="10" guides="1" tooltips="1" connect="1" arrows="1" fold="1" page="1" pageScale="1" pageWidth="850" pageHeight="1100" math="0" shadow="0">
      <root>
        <mxCell id="0" />
        <mxCell id="1" parent="0" />
        <mxCell id="qMycwdMJjsRmzumRevs1-33" value="&lt;font style=&quot;font-size: 20px;&quot;&gt;&lt;b&gt;任务(Job)数据模型&lt;/b&gt;&lt;/font&gt;" style="text;html=1;strokeColor=none;fillColor=none;align=center;verticalAlign=middle;whiteSpace=wrap;rounded=0;" vertex="1" parent="1">
          <mxGeometry x="220" y="-100" width="370" height="30" as="geometry" />
        </mxCell>
        <mxCell id="qMycwdMJjsRmzumRevs1-34" value="&lt;p style=&quot;margin:0px;margin-top:4px;text-align:center;&quot;&gt;&lt;b&gt;Job&lt;/b&gt;&lt;/p&gt;&lt;hr size=&quot;1&quot;&gt;&lt;p style=&quot;margin:0 0 0 4px;line-height:1.6;&quot;&gt;&lt;b&gt;标识与名称&lt;/b&gt;&lt;/p&gt;&lt;p style=&quot;margin:0 0 0 14px;line-height:1.6;&quot;&gt;+ ID: string&lt;br&gt;+ Name: string&lt;br&gt;+ DisplayName: string&lt;/p&gt;&lt;p style=&quot;margin:0 0 0 4px;line-height:1.6;&quot;&gt;&lt;b&gt;调度定义&lt;/b&gt;&lt;/p&gt;&lt;p style=&quot;margin:0 0 0 14px;line-height:1.6;&quot;&gt;+ Schedule: string 【Cron表达式】&lt;br&gt;+ Timezone: string&lt;/p&gt;&lt;p style=&quot;margin:0 0 0 4px;line-height:1.6;&quot;&gt;&lt;b&gt;执行配置&lt;/b&gt;&lt;/p&gt;&lt;p style=&quot;margin:0 0 0 14px;line-height:1.6;&quot;&gt;+ Executor: string 【shell, http等】&lt;br&gt;+ ExecutorConfig: map[string]string 【命令或URL等】&lt;br&gt;+ Tags: map[string]string 【目标节点标签】&lt;br&gt;+ Retries: uint 【失败重试次数】&lt;br&gt;+ Concurrency: string 【allow, forbid】&lt;/p&gt;&lt;p style=&quot;margin:0 0 0 4px;line-height:1.6;&quot;&gt;&lt;b&gt;状态信息&lt;/b&gt;&lt;/p&gt;&lt;p style=&quot;margin:0 0 0 14px;line-height:1.6;&quot;&gt;+ Status: string 【success, running, failed】&lt;br&gt;+ Disabled: bool&lt;br&gt;+ Next: time.Time 【下次执行时间】&lt;/p&gt;&lt;p style=&quot;margin:0 0 0 4px;line-height:1.6;&quot;&gt;&lt;b&gt;元数据&lt;/b&gt;&lt;/p&gt;&lt;p style=&quot;margin:0 0 0 14px;line-height:1.6;&quot;&gt;+ Metadata: map[string]string&lt;br&gt;+ Owner: string&lt;br&gt;+ OwnerEmail: string&lt;/p&gt;" style="verticalAlign=top;align=left;overflow=fill;fontSize=14;fontFamily=Helvetica;html=1;rounded=1;shadow=0;comic=0;labelBackgroundColor=none;strokeWidth=2;fillColor=#dae8fc;strokeColor=#6c8ebf;" vertex="1" parent="1">
          <mxGeometry x="180" y="-55" width="400" height="530" as="geometry" />
        </mxCell>
        <mxCell id="qMycwdMJjsRmzumRevs1-35" value="&lt;p style=&quot;margin:0px;margin-top:4px;text-align:center;&quot;&gt;&lt;b&gt;任务依赖关系&lt;/b&gt;&lt;/p&gt;&lt;hr size=&quot;1&quot;&gt;&lt;p style=&quot;margin:0 0 0 4px;line-height:1.6;&quot;&gt;+ ParentJob: string&lt;br&gt;+ DependentJobs: []string&lt;br&gt;+ ChildJobs: []*Job&lt;/p&gt;" style="verticalAlign=top;align=left;overflow=fill;fontSize=14;fontFamily=Helvetica;html=1;rounded=1;shadow=0;comic=0;labelBackgroundColor=none;strokeWidth=1;fillColor=#ffe6cc;strokeColor=#d79b00;" vertex="1" parent="1">
          <mxGeometry x="100" y="510" width="230" height="100" as="geometry" />
        </mxCell>
        <mxCell id="qMycwdMJjsRmzumRevs1-36" value="&lt;p style=&quot;margin:0px;margin-top:4px;text-align:center;&quot;&gt;&lt;b&gt;执行历史&lt;/b&gt;&lt;/p&gt;&lt;hr size=&quot;1&quot;&gt;&lt;p style=&quot;margin:0 0 0 4px;line-height:1.6;&quot;&gt;+ SuccessCount: int&lt;br&gt;+ ErrorCount: int&lt;br&gt;+ LastSuccess: NullableTime&lt;br&gt;+ LastError: NullableTime&lt;/p&gt;" style="verticalAlign=top;align=left;overflow=fill;fontSize=14;fontFamily=Helvetica;html=1;rounded=1;shadow=0;comic=0;labelBackgroundColor=none;strokeWidth=1;fillColor=#ffe6cc;strokeColor=#d79b00;" vertex="1" parent="1">
          <mxGeometry x="430" y="510" width="230" height="100" as="geometry" />
        </mxCell>
        <mxCell id="qMycwdMJjsRmzumRevs1-37" value="&lt;p style=&quot;margin:0px;margin-top:4px;text-align:center;&quot;&gt;&lt;b&gt;生命周期管理&lt;/b&gt;&lt;/p&gt;&lt;hr size=&quot;1&quot;&gt;&lt;p style=&quot;margin:0 0 0 4px;line-height:1.6;&quot;&gt;+ Ephemeral: bool 【一次性任务】&lt;br&gt;+ ExpiresAt: NullableTime 【过期时间】&lt;/p&gt;" style="verticalAlign=top;align=left;overflow=fill;fontSize=14;fontFamily=Helvetica;html=1;rounded=1;shadow=0;comic=0;labelBackgroundColor=none;strokeWidth=1;fillColor=#d5e8d4;strokeColor=#82b366;" vertex="1" parent="1">
          <mxGeometry x="265" y="640" width="230" height="80" as="geometry" />
        </mxCell>
        <mxCell id="qMycwdMJjsRmzumRevs1-38" value="&lt;p style=&quot;margin:0px;margin-top:4px;text-align:center;&quot;&gt;&lt;b&gt;Execution (执行结果)&lt;/b&gt;&lt;/p&gt;&lt;hr size=&quot;1&quot;&gt;&lt;p style=&quot;margin:0 0 0 4px;line-height:1.6;&quot;&gt;+ job_name: string&lt;br&gt;+ success: bool&lt;br&gt;+ output: []byte&lt;br&gt;+ node_name: string&lt;br&gt;+ started_at: Timestamp&lt;br&gt;+ finished_at: Timestamp&lt;/p&gt;" style="verticalAlign=top;align=left;overflow=fill;fontSize=14;fontFamily=Helvetica;html=1;rounded=1;shadow=0;comic=0;labelBackgroundColor=none;strokeWidth=1;fillColor=#f8cecc;strokeColor=#b85450;" vertex="1" parent="1">
          <mxGeometry x="650" y="270" width="200" height="150" as="geometry" />
        </mxCell>
        <mxCell id="qMycwdMJjsRmzumRevs1-39" value="&lt;p style=&quot;margin:0px;margin-top:4px;text-align:center;&quot;&gt;&lt;b&gt;任务状态常量&lt;/b&gt;&lt;/p&gt;&lt;hr size=&quot;1&quot;&gt;&lt;p style=&quot;margin:0 0 0 4px;line-height:1.6;&quot;&gt;StatusNotSet = &quot;&quot;&lt;br&gt;StatusSuccess = &quot;success&quot;&lt;br&gt;StatusRunning = &quot;running&quot;&lt;br&gt;StatusFailed = &quot;failed&quot;&lt;br&gt;StatusPartiallyFailed = &quot;partially_failed&quot;&lt;/p&gt;" style="verticalAlign=top;align=left;overflow=fill;fontSize=14;fontFamily=Helvetica;html=1;rounded=1;shadow=0;comic=0;labelBackgroundColor=none;strokeWidth=1;fillColor=#e1d5e7;strokeColor=#9673a6;" vertex="1" parent="1">
          <mxGeometry x="650" width="200" height="140" as="geometry" />
        </mxCell>
        <mxCell id="qMycwdMJjsRmzumRevs1-40" value="" style="endArrow=diamondThin;endFill=0;endSize=24;html=1;rounded=0;exitX=0.5;exitY=0;exitDx=0;exitDy=0;entryX=0.25;entryY=1;entryDx=0;entryDy=0;strokeWidth=2;" edge="1" parent="1" source="qMycwdMJjsRmzumRevs1-35" target="qMycwdMJjsRmzumRevs1-34">
          <mxGeometry width="160" relative="1" as="geometry">
            <mxPoint x="510" y="400" as="sourcePoint" />
            <mxPoint x="670" y="400" as="targetPoint" />
          </mxGeometry>
        </mxCell>
        <mxCell id="qMycwdMJjsRmzumRevs1-41" value="" style="endArrow=diamondThin;endFill=0;endSize=24;html=1;rounded=0;exitX=0.5;exitY=0;exitDx=0;exitDy=0;entryX=0.75;entryY=1;entryDx=0;entryDy=0;strokeWidth=2;" edge="1" parent="1" source="qMycwdMJjsRmzumRevs1-36" target="qMycwdMJjsRmzumRevs1-34">
          <mxGeometry width="160" relative="1" as="geometry">
            <mxPoint x="510" y="400" as="sourcePoint" />
            <mxPoint x="670" y="400" as="targetPoint" />
          </mxGeometry>
        </mxCell>
        <mxCell id="qMycwdMJjsRmzumRevs1-42" value="" style="endArrow=diamondThin;endFill=0;endSize=24;html=1;rounded=0;exitX=0.5;exitY=0;exitDx=0;exitDy=0;entryX=0.5;entryY=1;entryDx=0;entryDy=0;strokeWidth=1;" edge="1" parent="1" source="qMycwdMJjsRmzumRevs1-37" target="qMycwdMJjsRmzumRevs1-34">
          <mxGeometry width="160" relative="1" as="geometry">
            <mxPoint x="510" y="400" as="sourcePoint" />
            <mxPoint x="670" y="400" as="targetPoint" />
            <Array as="points">
              <mxPoint x="380" y="550" />
              <mxPoint x="380" y="520" />
            </Array>
          </mxGeometry>
        </mxCell>
        <mxCell id="qMycwdMJjsRmzumRevs1-43" value="使用" style="endArrow=open;endFill=0;endSize=12;html=1;rounded=0;exitX=1;exitY=0.25;exitDx=0;exitDy=0;entryX=0;entryY=0.5;entryDx=0;entryDy=0;dashed=1;strokeWidth=1;" edge="1" parent="1" source="qMycwdMJjsRmzumRevs1-34" target="qMycwdMJjsRmzumRevs1-39">
          <mxGeometry width="160" relative="1" as="geometry">
            <mxPoint x="510" y="400" as="sourcePoint" />
            <mxPoint x="670" y="400" as="targetPoint" />
          </mxGeometry>
        </mxCell>
        <mxCell id="qMycwdMJjsRmzumRevs1-44" value="产生" style="endArrow=open;endFill=0;endSize=12;html=1;rounded=0;exitX=1;exitY=0.75;exitDx=0;exitDy=0;entryX=0;entryY=0.5;entryDx=0;entryDy=0;dashed=1;strokeWidth=1;" edge="1" parent="1" source="qMycwdMJjsRmzumRevs1-34" target="qMycwdMJjsRmzumRevs1-38">
          <mxGeometry width="160" relative="1" as="geometry">
            <mxPoint x="510" y="400" as="sourcePoint" />
            <mxPoint x="670" y="400" as="targetPoint" />
          </mxGeometry>
        </mxCell>
        <mxCell id="qMycwdMJjsRmzumRevs1-45" value="依赖" style="endArrow=open;endFill=0;endSize=12;html=1;rounded=0;edgeStyle=orthogonalEdgeStyle;curved=1;strokeWidth=1;dashed=1;" edge="1" parent="1">
          <mxGeometry x="-0.0952" y="-10" width="160" relative="1" as="geometry">
            <mxPoint x="100" y="550" as="sourcePoint" />
            <mxPoint x="160" y="510" as="targetPoint" />
            <Array as="points">
              <mxPoint x="60" y="550" />
              <mxPoint x="60" y="490" />
              <mxPoint x="160" y="490" />
            </Array>
            <mxPoint as="offset" />
          </mxGeometry>
        </mxCell>
        <mxCell id="qMycwdMJjsRmzumRevs1-46" value="任务可以通过ParentJob/DependentJobs&#xa;形成执行依赖关系链，构成有向无环图" style="shape=note;size=15;align=left;spacingLeft=5;html=1;whiteSpace=wrap;fillColor=#fff2cc;strokeColor=#d6b656;" vertex="1" parent="1">
          <mxGeometry x="-10" y="630" width="200" height="60" as="geometry" />
        </mxCell>
        <mxCell id="qMycwdMJjsRmzumRevs1-47" value="任务通过Cron表达式调度&#xa;及Tags标签选择执行节点" style="shape=note;size=15;align=left;spacingLeft=5;html=1;whiteSpace=wrap;fillColor=#fff2cc;strokeColor=#d6b656;" vertex="1" parent="1">
          <mxGeometry x="680" y="570" width="200" height="60" as="geometry" />
        </mxCell>
      </root>
    </mxGraphModel>
  </diagram>
</mxfile>
